<svg width="258" height="55" viewBox="0 0 258 55" fill="none" xmlns="http://www.w3.org/2000/svg">
<path d="M65.848 35V18.08H73.192C75.048 18.08 76.48 18.544 77.488 19.472C78.496 20.4 79 21.696 79 23.36C79 25.024 78.496 26.328 77.488 27.272C76.48 28.2 75.048 28.664 73.192 28.664H68.92V35H65.848ZM68.92 26.24H72.712C74.92 26.24 76.024 25.28 76.024 23.36C76.024 21.456 74.92 20.504 72.712 20.504H68.92V26.24ZM84.5178 35.24C83.6698 35.24 82.9098 35.08 82.2378 34.76C81.5818 34.424 81.0618 33.976 80.6777 33.416C80.3098 32.856 80.1258 32.224 80.1258 31.52C80.1258 30.656 80.3498 29.976 80.7978 29.48C81.2458 28.968 81.9738 28.6 82.9818 28.376C83.9898 28.152 85.3418 28.04 87.0378 28.04H87.8778V27.536C87.8778 26.736 87.7018 26.16 87.3498 25.808C86.9978 25.456 86.4058 25.28 85.5738 25.28C84.9178 25.28 84.2458 25.384 83.5578 25.592C82.8698 25.784 82.1738 26.088 81.4698 26.504L80.6058 24.464C81.0218 24.176 81.5098 23.928 82.0698 23.72C82.6458 23.496 83.2458 23.328 83.8698 23.216C84.5098 23.088 85.1098 23.024 85.6698 23.024C87.3818 23.024 88.6538 23.424 89.4858 24.224C90.3178 25.008 90.7338 26.232 90.7338 27.896V35H87.9258V33.128C87.6538 33.784 87.2218 34.304 86.6298 34.688C86.0378 35.056 85.3338 35.24 84.5178 35.24ZM85.1418 33.176C85.9258 33.176 86.5738 32.904 87.0858 32.36C87.6138 31.816 87.8778 31.128 87.8778 30.296V29.768H87.0618C85.5578 29.768 84.5098 29.888 83.9178 30.128C83.3418 30.352 83.0538 30.768 83.0538 31.376C83.0538 31.904 83.2378 32.336 83.6058 32.672C83.9738 33.008 84.4858 33.176 85.1418 33.176ZM93.7788 35V23.264H96.7788V35H93.7788ZM94.2588 21.704L96.7308 16.832H99.6828L96.2748 21.704H94.2588ZM104.192 35.24C103.2 35.24 102.272 35.12 101.408 34.88C100.544 34.64 99.8239 34.296 99.2479 33.848L100.016 31.88C100.608 32.28 101.272 32.592 102.008 32.816C102.744 33.024 103.48 33.128 104.216 33.128C104.984 33.128 105.552 33 105.92 32.744C106.304 32.472 106.496 32.12 106.496 31.688C106.496 31.016 106 30.584 105.008 30.392L102.608 29.936C100.576 29.552 99.5599 28.496 99.5599 26.768C99.5599 26 99.7679 25.336 100.184 24.776C100.616 24.216 101.208 23.784 101.96 23.48C102.712 23.176 103.576 23.024 104.552 23.024C105.384 23.024 106.184 23.144 106.952 23.384C107.72 23.608 108.376 23.952 108.92 24.416L108.104 26.384C107.64 26 107.08 25.696 106.424 25.472C105.784 25.248 105.168 25.136 104.576 25.136C103.792 25.136 103.208 25.272 102.824 25.544C102.456 25.816 102.272 26.176 102.272 26.624C102.272 27.328 102.728 27.76 103.64 27.92L106.04 28.376C107.08 28.568 107.864 28.92 108.392 29.432C108.936 29.944 109.208 30.632 109.208 31.496C109.208 32.664 108.752 33.584 107.84 34.256C106.928 34.912 105.712 35.24 104.192 35.24ZM117.399 35.24C116.071 35.24 114.927 34.992 113.967 34.496C113.007 34 112.263 33.296 111.735 32.384C111.223 31.472 110.967 30.392 110.967 29.144C110.967 27.928 111.215 26.864 111.711 25.952C112.223 25.04 112.919 24.328 113.799 23.816C114.695 23.288 115.711 23.024 116.847 23.024C118.511 23.024 119.823 23.552 120.783 24.608C121.759 25.664 122.247 27.104 122.247 28.928V29.816H113.847C114.071 31.912 115.271 32.96 117.447 32.96C118.103 32.96 118.759 32.864 119.415 32.672C120.071 32.464 120.671 32.144 121.215 31.712L122.055 33.728C121.495 34.192 120.791 34.56 119.943 34.832C119.095 35.104 118.247 35.24 117.399 35.24ZM116.967 25.064C116.087 25.064 115.375 25.336 114.831 25.88C114.287 26.424 113.959 27.16 113.847 28.088H119.751C119.687 27.112 119.415 26.368 118.935 25.856C118.471 25.328 117.815 25.064 116.967 25.064ZM128.919 35.24C127.927 35.24 126.999 35.12 126.135 34.88C125.271 34.64 124.551 34.296 123.975 33.848L124.743 31.88C125.335 32.28 125.999 32.592 126.735 32.816C127.471 33.024 128.207 33.128 128.943 33.128C129.711 33.128 130.279 33 130.647 32.744C131.031 32.472 131.223 32.12 131.223 31.688C131.223 31.016 130.727 30.584 129.735 30.392L127.335 29.936C125.303 29.552 124.287 28.496 124.287 26.768C124.287 26 124.495 25.336 124.911 24.776C125.343 24.216 125.935 23.784 126.687 23.48C127.439 23.176 128.303 23.024 129.279 23.024C130.111 23.024 130.911 23.144 131.679 23.384C132.447 23.608 133.103 23.952 133.647 24.416L132.831 26.384C132.367 26 131.807 25.696 131.151 25.472C130.511 25.248 129.895 25.136 129.303 25.136C128.519 25.136 127.935 25.272 127.551 25.544C127.183 25.816 126.999 26.176 126.999 26.624C126.999 27.328 127.455 27.76 128.367 27.92L130.767 28.376C131.807 28.568 132.591 28.92 133.119 29.432C133.663 29.944 133.935 30.632 133.935 31.496C133.935 32.664 133.479 33.584 132.567 34.256C131.655 34.912 130.439 35.24 128.919 35.24ZM147.322 35.24C146.298 35.24 145.394 34.992 144.61 34.496C143.842 34 143.242 33.296 142.81 32.384C142.378 31.456 142.162 30.368 142.162 29.12C142.162 27.856 142.378 26.776 142.81 25.88C143.242 24.968 143.842 24.264 144.61 23.768C145.394 23.272 146.298 23.024 147.322 23.024C148.154 23.024 148.906 23.208 149.578 23.576C150.25 23.944 150.754 24.432 151.09 25.04V18.08H154.09V35H151.162V33.056C150.842 33.728 150.338 34.264 149.65 34.664C148.962 35.048 148.186 35.24 147.322 35.24ZM148.162 32.96C149.058 32.96 149.778 32.64 150.322 32C150.866 31.344 151.138 30.384 151.138 29.12C151.138 27.84 150.866 26.888 150.322 26.264C149.778 25.624 149.058 25.304 148.162 25.304C147.266 25.304 146.546 25.624 146.002 26.264C145.458 26.888 145.186 27.84 145.186 29.12C145.186 30.384 145.458 31.344 146.002 32C146.546 32.64 147.266 32.96 148.162 32.96ZM162.553 35.24C161.337 35.24 160.281 34.992 159.385 34.496C158.489 34 157.793 33.296 157.297 32.384C156.801 31.456 156.553 30.368 156.553 29.12C156.553 27.872 156.801 26.792 157.297 25.88C157.793 24.968 158.489 24.264 159.385 23.768C160.281 23.272 161.337 23.024 162.553 23.024C163.769 23.024 164.825 23.272 165.721 23.768C166.617 24.264 167.313 24.968 167.809 25.88C168.305 26.792 168.553 27.872 168.553 29.12C168.553 30.368 168.305 31.456 167.809 32.384C167.313 33.296 166.617 34 165.721 34.496C164.825 34.992 163.769 35.24 162.553 35.24ZM162.553 32.96C163.449 32.96 164.169 32.64 164.713 32C165.257 31.344 165.529 30.384 165.529 29.12C165.529 27.84 165.257 26.888 164.713 26.264C164.169 25.624 163.449 25.304 162.553 25.304C161.657 25.304 160.937 25.624 160.393 26.264C159.849 26.888 159.577 27.84 159.577 29.12C159.577 30.384 159.849 31.344 160.393 32C160.937 32.64 161.657 32.96 162.553 32.96ZM177.546 35V23.264H180.474V25.064C180.826 24.424 181.314 23.928 181.938 23.576C182.562 23.208 183.282 23.024 184.098 23.024C185.858 23.024 187.01 23.792 187.554 25.328C187.922 24.608 188.45 24.048 189.138 23.648C189.826 23.232 190.61 23.024 191.49 23.024C194.13 23.024 195.45 24.632 195.45 27.848V35H192.45V27.968C192.45 27.072 192.298 26.416 191.994 26C191.706 25.584 191.21 25.376 190.506 25.376C189.722 25.376 189.106 25.656 188.658 26.216C188.21 26.76 187.986 27.52 187.986 28.496V35H184.986V27.968C184.986 27.072 184.834 26.416 184.53 26C184.242 25.584 183.754 25.376 183.066 25.376C182.282 25.376 181.666 25.656 181.218 26.216C180.77 26.76 180.546 27.52 180.546 28.496V35H177.546ZM202.792 35.24C199.912 35.24 198.472 33.624 198.472 30.392V23.264H201.472V30.44C201.472 31.272 201.64 31.888 201.976 32.288C202.312 32.688 202.848 32.888 203.584 32.888C204.384 32.888 205.04 32.616 205.552 32.072C206.064 31.512 206.32 30.776 206.32 29.864V23.264H209.32V35H206.392V33.248C205.608 34.576 204.408 35.24 202.792 35.24ZM212.443 35V23.264H215.371V25.088C215.771 24.416 216.307 23.904 216.979 23.552C217.667 23.2 218.435 23.024 219.283 23.024C222.051 23.024 223.435 24.632 223.435 27.848V35H220.435V27.992C220.435 27.08 220.259 26.416 219.907 26C219.571 25.584 219.043 25.376 218.323 25.376C217.443 25.376 216.739 25.656 216.211 26.216C215.699 26.76 215.443 27.488 215.443 28.4V35H212.443ZM230.994 35.24C229.97 35.24 229.066 34.992 228.282 34.496C227.514 34 226.914 33.296 226.482 32.384C226.05 31.456 225.834 30.368 225.834 29.12C225.834 27.856 226.05 26.776 226.482 25.88C226.914 24.968 227.514 24.264 228.282 23.768C229.066 23.272 229.97 23.024 230.994 23.024C231.826 23.024 232.578 23.208 233.25 23.576C233.922 23.944 234.426 24.432 234.762 25.04V18.08H237.762V35H234.834V33.056C234.514 33.728 234.01 34.264 233.322 34.664C232.634 35.048 231.858 35.24 230.994 35.24ZM231.834 32.96C232.73 32.96 233.45 32.64 233.994 32C234.538 31.344 234.81 30.384 234.81 29.12C234.81 27.84 234.538 26.888 233.994 26.264C233.45 25.624 232.73 25.304 231.834 25.304C230.938 25.304 230.218 25.624 229.674 26.264C229.13 26.888 228.858 27.84 228.858 29.12C228.858 30.384 229.13 31.344 229.674 32C230.218 32.64 230.938 32.96 231.834 32.96ZM246.225 35.24C245.009 35.24 243.953 34.992 243.057 34.496C242.161 34 241.465 33.296 240.969 32.384C240.473 31.456 240.225 30.368 240.225 29.12C240.225 27.872 240.473 26.792 240.969 25.88C241.465 24.968 242.161 24.264 243.057 23.768C243.953 23.272 245.009 23.024 246.225 23.024C247.441 23.024 248.497 23.272 249.393 23.768C250.289 24.264 250.985 24.968 251.481 25.88C251.977 26.792 252.225 27.872 252.225 29.12C252.225 30.368 251.977 31.456 251.481 32.384C250.985 33.296 250.289 34 249.393 34.496C248.497 34.992 247.441 35.24 246.225 35.24ZM246.225 32.96C247.121 32.96 247.841 32.64 248.385 32C248.929 31.344 249.201 30.384 249.201 29.12C249.201 27.84 248.929 26.888 248.385 26.264C247.841 25.624 247.121 25.304 246.225 25.304C245.329 25.304 244.609 25.624 244.065 26.264C243.521 26.888 243.249 27.84 243.249 29.12C243.249 30.384 243.521 31.344 244.065 32C244.609 32.64 245.329 32.96 246.225 32.96Z" fill="#1F2937"/>
<path d="M27.5 55C42.6878 55 55 42.6878 55 27.5C55 12.3122 42.6878 0 27.5 0C12.3122 0 0 12.3122 0 27.5C0 42.6878 12.3122 55 27.5 55Z" fill="#88C9F9"/>
<path d="M46.0318 36.2816C44.4781 35.6857 44.7546 35.9027 43.7967 33.8661C42.8388 31.8311 42.2582 31.1757 40.104 30.9374C37.9484 30.7006 38.0293 30.8686 37.4304 29.7916C36.8315 28.7129 34.4024 30.0834 32.8471 30.6838C31.2872 31.2827 31.6722 32.5874 31.1925 32.4652C30.7113 32.346 29.5013 32.0359 28.3004 31.0795C27.1027 30.12 29.1911 29.3714 29.7915 28.7741C30.392 28.1736 28.661 28.5006 28.0606 28.1385C27.4602 27.781 26.3861 28.8581 25.4282 27.8971C24.4688 26.9392 25.0692 25.5016 24.95 24.3038C24.8293 23.1045 26.5053 22.8661 27.5839 22.6263C28.661 22.3879 29.4982 22.6278 29.4982 24.0639C29.4982 25.5016 30.8167 25.9813 30.4577 24.3022C30.0986 22.6232 30.8167 22.1466 31.2979 21.3078C31.7761 20.4691 32.6149 19.2698 33.692 17.4731C34.7706 15.6764 35.4902 16.5136 36.8071 16.642C38.1256 16.7718 38.4846 16.5152 39.4425 16.6359C40.3974 16.7566 39.4425 15.4381 39.8031 14.1211C40.1606 12.8042 41.479 13.0425 42.799 13.4031C44.116 13.7621 41.479 11.7241 41.0009 10.647C40.5196 9.56836 39.2027 10.647 38.367 8.85031C37.5221 7.05364 36.3442 5.891 35.2656 5.73058C34.187 5.56864 35.6093 8.01309 34.7706 9.33003C33.9288 10.647 32.6393 10.4407 31.3178 10.4407C30.0024 10.4407 28.7802 9.33003 29.7396 7.65253C30.696 5.97656 32.5247 6.1492 33.4827 4.71156C34.4421 3.27545 30.0757 3.40684 28.5174 2.92864C26.959 2.44892 25.089 2.4535 23.5322 3.65128C21.9739 4.84753 18.6418 5.22183 17.3233 5.70003C16.0064 6.17822 15.7696 4.90559 15.5313 3.94614C15.4243 3.51989 14.9385 3.38545 14.254 3.40072C10.8624 5.27072 7.92446 7.84961 5.59766 10.9189C5.95974 12.1518 7.71363 10.6302 8.05738 10.2864C8.41641 9.92739 10.2131 10.4071 10.4514 11.7241C10.6913 13.041 10.5721 14.4817 10.0939 15.6795C9.61418 16.8757 11.2917 18.5532 12.2496 20.2307C13.209 21.9097 14.2861 21.9082 14.7659 21.9082C15.244 21.9082 18.0002 22.9868 17.8795 24.3038C17.7603 25.6223 20.3957 26.8185 21.4743 27.6573C22.5529 28.4991 23.2343 29.3256 24.6338 29.567C26.0347 29.8084 27.6725 32.0985 28.3906 32.3399C28.9421 32.5232 29.8756 33.4048 30.4393 33.6782C29.6984 34.6163 28.2638 36.5428 28.2638 37.4304C28.2638 38.6313 29.8297 40.5181 30.4286 40.9963C31.026 41.4729 32.7463 41.8366 33.1022 43.0328C33.4628 44.2306 32.8517 48.2624 31.7761 49.3395C30.6945 50.4166 30.3018 52.9634 30.3018 52.9634C30.3018 52.9634 30.6822 53.7899 31.9564 52.9634C33.365 52.0513 35.7239 49.4541 36.6665 48.8888C38.4632 47.8086 40.2095 46.4978 41.887 44.9425C43.5645 43.3857 42.9564 42.2949 43.7967 40.7411C44.6354 39.1843 45.7202 39.2546 47.1563 37.9407C48.5954 36.6207 47.5902 36.882 46.0318 36.2816Z" fill="#5C913B"/>
</svg>
